<?xml version="1.0" encoding="UTF-8"?>
<svg xmlns="http://www.w3.org/2000/svg" xmlns:xlink="http://www.w3.org/1999/xlink" width="200pt" height="200pt" viewBox="0 0 200 200" version="1.1">
<g id="surface13163687">
<path style=" stroke:none;fill-rule:nonzero;fill:rgb(100%,100%,100%);fill-opacity:1;" d="M 40 44 C 32.292969 44 26 50.292969 26 58 L 26 142 C 26 149.707031 32.292969 156 40 156 L 160 156 C 167.707031 156 174 149.707031 174 142 L 174 58 C 174 50.292969 167.707031 44 160 44 Z M 40 48 L 160 48 C 165.535156 48 169.980469 52.433594 170 57.960938 C 169.988281 60.820312 168.625 63.496094 166.316406 65.1875 L 100 113.761719 L 33.683594 65.1875 C 31.375 63.496094 30.011719 60.820312 30 57.960938 C 30.015625 54.027344 32.289062 50.683594 35.582031 49.0625 L 99.410156 95.808594 C 99.761719 96.066406 100.238281 96.066406 100.589844 95.808594 L 133.359375 71.808594 C 133.804688 71.484375 133.902344 70.855469 133.578125 70.410156 C 133.253906 69.964844 132.625 69.867188 132.179688 70.191406 L 100 93.761719 L 37.851562 48.242188 C 38.542969 48.09375 39.261719 48 40 48 Z M 153.035156 55.175781 C 152.808594 55.171875 152.589844 55.242188 152.410156 55.378906 L 148.410156 58.304688 C 148.105469 58.507812 147.9375 58.863281 147.972656 59.230469 C 148.007812 59.59375 148.238281 59.910156 148.574219 60.054688 C 148.914062 60.199219 149.300781 60.144531 149.589844 59.917969 L 153.589844 56.992188 C 153.941406 56.742188 154.09375 56.296875 153.96875 55.882812 C 153.84375 55.472656 153.464844 55.1875 153.035156 55.175781 Z M 145.035156 61.03125 C 145 61.03125 144.96875 61.03125 144.933594 61.035156 C 144.742188 61.050781 144.5625 61.121094 144.410156 61.234375 L 136.410156 67.09375 C 136.105469 67.296875 135.9375 67.652344 135.972656 68.019531 C 136.007812 68.382812 136.238281 68.699219 136.574219 68.84375 C 136.914062 68.988281 137.300781 68.933594 137.589844 68.707031 L 145.589844 62.847656 C 145.941406 62.597656 146.09375 62.152344 145.96875 61.738281 C 145.84375 61.328125 145.464844 61.042969 145.035156 61.03125 Z M 30 64.230469 C 30.683594 65.203125 31.515625 66.078125 32.5 66.800781 C 32.5 66.800781 32.5 66.804688 32.5 66.804688 L 99.410156 115.808594 C 99.761719 116.066406 100.238281 116.066406 100.589844 115.808594 L 167.5 66.804688 C 167.5 66.804688 167.5 66.800781 167.5 66.800781 C 168.484375 66.082031 169.316406 65.203125 170 64.230469 L 170 142 C 170 147.546875 165.546875 152 160 152 L 40 152 C 34.453125 152 30 147.546875 30 142 Z M 44.984375 79.984375 C 44.71875 79.988281 44.464844 80.097656 44.28125 80.289062 C 44.097656 80.480469 43.996094 80.734375 44 81 L 44 147 C 43.996094 147.359375 44.183594 147.695312 44.496094 147.878906 C 44.808594 148.058594 45.191406 148.058594 45.503906 147.878906 C 45.816406 147.695312 46.003906 147.359375 46 147 L 46 81 C 46.003906 80.730469 45.898438 80.46875 45.707031 80.277344 C 45.515625 80.085938 45.253906 79.980469 44.984375 79.984375 Z M 154.984375 79.984375 C 154.71875 79.988281 154.464844 80.097656 154.28125 80.289062 C 154.097656 80.480469 153.996094 80.734375 154 81 L 154 123 C 153.996094 123.359375 154.183594 123.695312 154.496094 123.878906 C 154.808594 124.058594 155.191406 124.058594 155.503906 123.878906 C 155.816406 123.695312 156.003906 123.359375 156 123 L 156 81 C 156.003906 80.730469 155.898438 80.46875 155.707031 80.277344 C 155.515625 80.085938 155.253906 79.980469 154.984375 79.984375 Z M 154.984375 127.984375 C 154.71875 127.988281 154.464844 128.097656 154.28125 128.289062 C 154.097656 128.480469 153.996094 128.734375 154 129 L 154 139 C 153.996094 139.359375 154.183594 139.695312 154.496094 139.878906 C 154.808594 140.058594 155.191406 140.058594 155.503906 139.878906 C 155.816406 139.695312 156.003906 139.359375 156 139 L 156 129 C 156.003906 128.730469 155.898438 128.46875 155.707031 128.277344 C 155.515625 128.085938 155.253906 127.980469 154.984375 127.984375 Z M 154.984375 143.984375 C 154.71875 143.988281 154.464844 144.097656 154.28125 144.289062 C 154.097656 144.480469 153.996094 144.734375 154 145 L 154 147 C 153.996094 147.359375 154.183594 147.695312 154.496094 147.878906 C 154.808594 148.058594 155.191406 148.058594 155.503906 147.878906 C 155.816406 147.695312 156.003906 147.359375 156 147 L 156 145 C 156.003906 144.730469 155.898438 144.46875 155.707031 144.277344 C 155.515625 144.085938 155.253906 143.980469 154.984375 143.984375 Z M 154.984375 143.984375 "/>
</g>
</svg>
